<?xml version="1.0" encoding="UTF-8"?>
<svg xmlns="http://www.w3.org/2000/svg" xmlns:xlink="http://www.w3.org/1999/xlink" width="300px" height="144px" viewBox="0 0 218 105" version="1.1">
<defs>
<clipPath id="clip1">
  <path d="M 0.0390625 24 L 52 24 L 52 72 L 0.0390625 72 Z M 0.0390625 24 "/>
</clipPath>
<clipPath id="clip2">
  <path d="M 0.0390625 83 L 13 83 L 13 105 L 0.0390625 105 Z M 0.0390625 83 "/>
</clipPath>
</defs>
<g id="surface1">
<path style=" stroke:none;fill-rule:nonzero;fill:rgb(93.725491%,66.666669%,21.176471%);fill-opacity:1;" d="M 26.050781 25.03125 C 25.855469 24.949219 25.910156 24.703125 25.722656 24.648438 C 25.390625 25.148438 25.0625 25.648438 24.789062 26.132812 C 25.117188 26.601562 25.417969 27.09375 25.789062 27.5625 C 25.902344 27.328125 26.050781 27.113281 26.226562 26.929688 C 26.171875 26.707031 26.476562 26.652344 26.554688 26.425781 C 26.96875 25.988281 26.335938 25.65625 26.226562 25.273438 C 26.199219 25.164062 25.976562 25.21875 26.0625 25.023438 M 12.652344 15.882812 L 12.570312 15.882812 L 12.027344 16.570312 L 12.050781 16.597656 C 11.847656 16.765625 11.6875 16.980469 11.585938 17.230469 C 12.109375 17.394531 12.628906 17.480469 13.152344 17.667969 C 13.480469 17.203125 13.808594 16.816406 14.191406 16.320312 C 13.726562 16.070312 13.207031 16.046875 12.660156 15.933594 L 12.660156 15.882812 Z M 39.90625 17.089844 C 39.570312 16.636719 39.207031 16.203125 38.820312 15.792969 C 38.320312 15.960938 37.804688 16.070312 37.316406 16.234375 L 37.398438 16.425781 C 37.757812 16.675781 38.03125 17.25 38.332031 17.578125 C 38.832031 17.390625 39.457031 17.304688 39.925781 17.078125 M 18.496094 0.90625 C 17.976562 0.742188 17.457031 0.546875 16.933594 0.328125 C 16.878906 0.851562 17.042969 1.484375 16.988281 2.082031 C 17.515625 2.3125 18.058594 2.515625 18.609375 2.6875 L 18.636719 2.136719 C 18.523438 1.726562 18.636719 1.339844 18.496094 0.902344 M 34.5 0.324219 C 34.554688 0.902344 34.386719 1.453125 34.441406 2.054688 C 33.941406 2.277344 33.371094 2.414062 32.824219 2.632812 L 32.824219 0.933594 C 33.347656 0.769531 33.921875 0.429688 34.5 0.328125 M 36.800781 12.144531 C 36.722656 12.613281 36.550781 13.246094 36.003906 13.4375 C 35.898438 13.464844 35.816406 13.574219 35.648438 13.546875 C 36.0625 13.042969 35.871094 12.449219 36.003906 11.925781 C 35.753906 10.769531 34.9375 10.195312 34.773438 8.902344 C 34.660156 7.804688 34.472656 6.730469 33.648438 5.960938 C 33.535156 6.015625 33.59375 5.90625 33.507812 5.878906 C 33.398438 5.847656 33.304688 5.78125 33.234375 5.6875 C 33.320312 5.542969 33.480469 5.457031 33.648438 5.46875 C 34.277344 5.605469 34.992188 5.96875 35.183594 6.648438 C 35.515625 7.445312 35.539062 8.597656 35.789062 9.425781 C 35.957031 9.765625 36.152344 10.097656 36.363281 10.414062 C 36.308594 10.636719 36.5 10.6875 36.554688 10.851562 C 36.75 11.265625 36.914062 11.734375 36.808594 12.144531 M 32.445312 11.046875 C 32.003906 10.9375 31.59375 10.796875 31.074219 10.660156 C 31.402344 10.277344 31.730469 10 31.980469 9.644531 C 32.480469 9.835938 32.855469 9.863281 33.296875 10.027344 C 32.992188 10.414062 32.691406 10.746094 32.445312 11.046875 M 34.367188 17.445312 C 34.710938 17.722656 34.867188 18.171875 34.777344 18.601562 C 34.394531 20.304688 32.523438 20.332031 31.523438 21.375 C 30.726562 22.148438 29.742188 23.578125 28.421875 22.941406 C 28.09375 22.917969 27.921875 22.558594 27.847656 22.394531 C 29 22.558594 30.011719 21.925781 30.617188 21.019531 C 30.746094 20.933594 30.867188 20.832031 30.976562 20.71875 C 31.992188 19.589844 34.40625 19.507812 34.378906 17.460938 M 30.398438 18.964844 L 29.082031 18.460938 L 29.054688 17.089844 C 29.4375 17.171875 29.875 17.53125 30.289062 17.554688 C 30.425781 17.886719 30.34375 18.214844 30.34375 18.558594 C 30.507812 18.667969 30.398438 18.832031 30.398438 18.96875 M 27.628906 17.101562 C 27.214844 17.542969 26.585938 17.351562 26.125 17.320312 C 25.125 17.265625 23.847656 17.761719 23.40625 16.632812 C 23.1875 16.550781 23.324219 16.222656 23.109375 16.109375 C 22.484375 16.125 21.898438 15.828125 21.542969 15.316406 C 21.265625 14.4375 21.128906 13.667969 20.746094 12.839844 C 20.691406 12.320312 20.882812 11.585938 21.378906 11.273438 C 21.789062 11.167969 21.351562 10.890625 21.460938 10.671875 C 21.363281 10.480469 21.355469 10.261719 21.433594 10.066406 C 21.761719 8.941406 23.164062 8.914062 23.792969 7.839844 C 24.011719 7.539062 24.640625 7.648438 25 7.675781 C 25.269531 7.824219 25.523438 7.992188 25.765625 8.179688 C 26.175781 7.710938 26.816406 7.519531 27.414062 7.675781 C 27.496094 7.871094 27.800781 7.785156 27.800781 8.003906 C 28.054688 8.203125 28.296875 8.425781 28.515625 8.664062 C 29.171875 9.050781 30.015625 9.324219 30.105469 10.203125 C 30.105469 10.535156 29.9375 10.644531 29.964844 10.972656 C 29.9375 10.972656 29.910156 11 29.882812 11.027344 C 30.296875 11.53125 30.957031 12.019531 30.761719 12.703125 C 30.433594 13.527344 30.046875 14.078125 30.046875 14.902344 C 30.019531 15.371094 29.582031 15.78125 29.140625 15.976562 C 28.890625 16.078125 28.617188 16.117188 28.347656 16.082031 C 28.15625 16.441406 27.960938 16.964844 27.636719 17.101562 M 21.160156 17.640625 C 21.574219 17.476562 22.039062 17.308594 22.410156 17.117188 C 22.492188 17.417969 22.410156 18.082031 22.382812 18.546875 C 22.050781 18.582031 21.730469 18.695312 21.453125 18.878906 C 21.316406 18.847656 21.175781 18.957031 21.070312 18.984375 C 21.027344 18.648438 21.0625 18.304688 21.175781 17.984375 C 21.140625 17.878906 21.132812 17.761719 21.148438 17.652344 M 23.179688 22.953125 C 22.492188 23.367188 21.808594 23.039062 21.230469 22.652344 L 19.914062 21.335938 L 19.886719 21.363281 C 19.128906 20.664062 18.085938 20.308594 17.234375 19.785156 C 17.042969 19.484375 16.796875 19.261719 16.769531 18.878906 L 16.714844 18.878906 C 16.589844 18.398438 16.699219 17.886719 17.015625 17.503906 C 17.152344 18.957031 18.664062 19.699219 19.871094 20.195312 C 21.023438 21.019531 21.789062 22.78125 23.660156 22.394531 C 23.492188 22.558594 23.519531 22.898438 23.191406 22.941406 M 26.550781 5.660156 C 26.332031 6.015625 26.03125 6.320312 25.753906 6.703125 C 25.480469 6.511719 25.207031 6.070312 24.933594 5.699219 C 25.207031 5.398438 25.433594 4.875 25.730469 4.519531 C 26.003906 4.902344 26.304688 5.398438 26.550781 5.671875 M 21.984375 3.050781 C 21.816406 3.019531 21.761719 3.269531 21.628906 3.324219 C 21.460938 3.050781 21.628906 2.636719 21.816406 2.335938 C 22.367188 1.703125 23.21875 1.347656 24.097656 1.703125 C 24.371094 1.8125 24.535156 1.648438 24.78125 1.839844 C 25.386719 1.894531 26.183594 1.949219 26.675781 1.785156 C 26.953125 1.675781 27.175781 1.839844 27.425781 1.648438 L 27.425781 1.675781 C 27.894531 1.675781 28.277344 1.425781 28.679688 1.648438 C 29.007812 1.839844 29.585938 2.089844 29.75 2.527344 C 29.777344 2.832031 29.941406 3.027344 29.832031 3.296875 C 29.570312 3.019531 29.253906 2.800781 28.898438 2.664062 C 28.242188 2.472656 27.5 2.554688 26.757812 2.691406 L 26.757812 2.71875 C 26.292969 2.773438 25.660156 2.886719 25.164062 2.773438 C 25.085938 2.773438 24.949219 2.859375 24.894531 2.71875 C 24.699219 2.746094 24.453125 2.609375 24.140625 2.636719 C 23.730469 2.542969 23.300781 2.542969 22.890625 2.636719 C 22.554688 2.6875 22.242188 2.832031 21.984375 3.050781 M 18.964844 11.101562 C 18.714844 10.660156 18.363281 10.441406 18.113281 10.054688 C 18.617188 10 18.992188 9.753906 19.488281 9.699219 C 19.816406 10.082031 20.144531 10.359375 20.390625 10.6875 C 19.84375 10.714844 19.433594 11.15625 18.964844 11.101562 M 16.824219 8.023438 C 16.742188 8.078125 16.769531 8.296875 16.796875 8.410156 C 16.796875 9.207031 16.46875 9.78125 16.167969 10.441406 C 15.621094 11.191406 15.386719 12.121094 15.507812 13.035156 C 15.542969 13.238281 15.640625 13.425781 15.785156 13.574219 L 15.785156 13.601562 C 15.5 13.550781 15.234375 13.425781 15.015625 13.246094 C 13.835938 11.347656 15.867188 10.054688 15.921875 8.132812 C 16.085938 7.199219 16.25 6.15625 17.210938 5.6875 C 17.429688 5.496094 18.007812 5.4375 18.253906 5.714844 C 17.402344 6.070312 16.882812 7.171875 16.828125 8.023438 M 38.042969 12.089844 L 37.988281 10.746094 C 37.792969 9.535156 37.574219 8.324219 36.96875 7.199219 C 36.996094 7.085938 36.75 7.171875 36.890625 7.03125 C 36.089844 5.960938 35.515625 4.617188 34.03125 4.148438 C 33.128906 3.929688 32.441406 4.425781 31.863281 4.945312 L 31.890625 4.972656 C 31.269531 5.644531 30.699219 6.359375 30.191406 7.117188 C 30.136719 7.226562 29.941406 7.226562 29.972656 7.417969 C 29.734375 7.667969 29.46875 7.890625 29.175781 8.078125 C 29.117188 8.117188 29.042969 8.125 28.972656 8.105469 C 28.90625 8.082031 28.847656 8.035156 28.820312 7.96875 C 28.875 7.828125 28.820312 7.75 28.847656 7.667969 C 28.875 7.640625 28.902344 7.585938 28.957031 7.613281 L 28.929688 7.472656 C 28.929688 7.253906 29.261719 7.144531 29.261719 6.925781 C 29.972656 5.441406 31.671875 4.316406 31.234375 2.335938 C 30.632812 1.015625 29.011719 0.4375 27.445312 0.191406 C 26.621094 -0.109375 25.359375 0.0273438 24.371094 0.0546875 C 24.316406 0.21875 24.046875 0.0273438 24.015625 0.191406 C 22.78125 0.355469 21.84375 0.660156 20.96875 1.347656 C 20.355469 1.835938 20.027344 2.597656 20.089844 3.378906 C 20.589844 5.027344 22.039062 6.347656 22.667969 7.914062 C 22.640625 8.050781 22.585938 8.164062 22.449219 8.164062 C 21.378906 7.695312 20.859375 6.515625 20.117188 5.691406 C 19.84375 5.386719 19.597656 5.003906 19.265625 4.785156 C 18.746094 4.207031 18.085938 4.152344 17.402344 4.207031 C 17.234375 4.207031 17.152344 4.34375 16.988281 4.371094 C 15.671875 4.976562 15.121094 6.351562 14.355469 7.421875 C 14.015625 8.160156 13.761719 8.933594 13.601562 9.730469 C 13.523438 11.484375 13.164062 13.082031 14.101562 14.429688 C 15.671875 16.046875 17.785156 14.371094 19.460938 14.09375 C 19.597656 14.039062 19.898438 14.09375 19.960938 14.015625 C 20.1875 13.984375 20.417969 14.054688 20.589844 14.207031 C 20.589844 14.425781 20.398438 14.425781 20.375 14.617188 C 19.082031 15.332031 17.519531 15.691406 16.199219 16.429688 C 15.460938 16.933594 15.199219 17.613281 15.351562 18.546875 C 15.808594 20.527344 17.511719 22.171875 19.238281 23.246094 C 20.332031 23.867188 21.535156 24.269531 22.78125 24.425781 C 23.765625 24.453125 24.53125 24.042969 24.894531 23.246094 C 25.332031 21.925781 25.085938 20.238281 25.304688 18.847656 C 25.304688 18.4375 25.441406 18.160156 25.773438 18.023438 C 26.074219 18.023438 25.960938 18.355469 26.128906 18.4375 C 26.292969 19.691406 26.210938 20.5 26.210938 21.597656 L 26.320312 21.734375 C 26.210938 22.039062 26.429688 22.234375 26.320312 22.503906 C 26.484375 22.585938 26.402344 22.78125 26.402344 22.941406 C 26.730469 23.550781 27.152344 24.097656 27.746094 24.234375 C 27.9375 24.292969 28.246094 24.347656 28.496094 24.425781 C 29.246094 24.261719 30.03125 24.261719 30.75 23.90625 C 31.703125 23.511719 32.597656 22.996094 33.410156 22.367188 C 33.6875 22.257812 33.769531 21.898438 34.042969 21.84375 C 35.03125 20.773438 35.992188 19.699219 36.210938 18.246094 C 36.320312 15.964844 33.632812 15.855469 32.203125 15.085938 C 31.765625 14.835938 30.953125 14.78125 30.96875 14.082031 C 31.472656 13.832031 31.972656 14.082031 32.34375 14.164062 C 33.84375 14.386719 35.058594 15.539062 36.761719 14.769531 C 37.636719 14.386719 37.914062 13.421875 37.941406 12.601562 C 38.078125 12.546875 37.941406 12.160156 38.050781 12.078125 M 26.53125 13.078125 C 26.265625 13.402344 25.839844 13.542969 25.433594 13.4375 C 25.214844 13.296875 24.886719 13.132812 24.804688 12.832031 C 24.636719 12.476562 24.859375 12.144531 24.996094 11.84375 C 25.21875 11.617188 25.535156 11.507812 25.851562 11.542969 C 26.167969 11.582031 26.449219 11.761719 26.613281 12.035156 C 26.804688 12.335938 26.667969 12.832031 26.53125 13.078125 M 27.109375 14.234375 C 27.628906 14.617188 28.109375 15.304688 28.863281 15.058594 C 29.027344 14.863281 29.246094 14.726562 29.273438 14.453125 C 29.273438 13.574219 29.847656 13.21875 29.796875 12.394531 C 29.246094 11.484375 28.066406 12.0625 27.160156 12.121094 L 27.132812 12.0625 C 27.898438 11.484375 29.21875 11.292969 29.082031 10.140625 C 28.890625 9.753906 28.367188 9.589844 28.082031 9.3125 C 27.75 9.0625 27.328125 8.710938 26.957031 8.597656 C 26.539062 8.628906 26.175781 8.890625 26.015625 9.277344 C 26.019531 9.628906 25.980469 9.976562 25.90625 10.320312 C 25.796875 10.515625 25.878906 10.925781 25.742188 11.175781 L 25.660156 11.0625 C 25.59375 10.410156 25.464844 9.769531 25.277344 9.140625 C 25.136719 8.808594 24.8125 8.589844 24.453125 8.589844 C 23.847656 8.839844 23.382812 9.441406 22.890625 9.664062 C 22.753906 9.773438 22.476562 9.878906 22.449219 10.128906 C 22.292969 11.457031 23.742188 11.53125 24.398438 12.089844 L 24.34375 12.121094 C 24.152344 12.046875 23.945312 12.019531 23.742188 12.035156 C 23.082031 11.925781 22.339844 11.785156 21.84375 12.144531 C 21.351562 12.503906 21.816406 13.105469 21.957031 13.492188 L 22.011719 13.519531 C 22.285156 14.066406 22.039062 14.808594 22.695312 15.085938 C 22.949219 15.222656 23.082031 15.058594 23.355469 15.058594 C 23.875 14.648438 24.355469 14.015625 24.894531 13.710938 C 24.726562 13.960938 24.753906 14.289062 24.480469 14.464844 C 24.371094 14.964844 24.015625 15.214844 24.125 15.699219 L 24.097656 15.699219 L 24.152344 16.082031 C 24.261719 16.386719 24.453125 16.414062 24.699219 16.523438 C 25.496094 16.304688 26.265625 16.496094 27.007812 16.441406 C 28.019531 15.507812 26.730469 14.546875 26.503906 13.667969 C 26.714844 13.839844 26.910156 14.03125 27.082031 14.242188 "/>
<g clip-path="url(#clip1)" clip-rule="nonzero">
<path style=" stroke:none;fill-rule:nonzero;fill:rgb(93.725491%,66.666669%,21.176471%);fill-opacity:1;" d="M 5.460938 65.449219 C 5.433594 65.230469 5.1875 65.230469 5.023438 65.199219 L 5.023438 66.453125 C 5.683594 66.894531 5.957031 67.882812 5.820312 68.679688 C 5.730469 69.039062 5.582031 69.382812 5.378906 69.695312 C 5.015625 70.074219 4.550781 70.335938 4.035156 70.445312 C 2.992188 70.503906 2.167969 70.0625 1.730469 69.074219 C 1.59375 68.359375 1.566406 67.644531 1.949219 67.039062 C 2.308594 66.929688 2.222656 66.519531 2.222656 66.1875 L 2.195312 66.1875 L 2.167969 65.308594 C 1.8125 65.394531 1.511719 65.777344 1.207031 65.996094 C 0.605469 66.765625 0.304688 67.398438 0.332031 68.523438 C 0.40625 68.679688 0.441406 68.851562 0.4375 69.027344 L 0.492188 69.027344 C 0.632812 69.960938 1.207031 70.511719 1.949219 71.171875 C 2.527344 71.472656 3.347656 71.746094 3.84375 71.671875 C 3.945312 71.660156 4.046875 71.660156 4.144531 71.671875 C 4.664062 71.648438 5.105469 71.34375 5.597656 71.171875 C 6.804688 70.238281 7.351562 68.886719 6.890625 67.214844 C 6.863281 67.15625 6.722656 67.019531 6.777344 66.882812 C 6.394531 66.304688 6.09375 65.644531 5.460938 65.453125 M 2.691406 58.609375 C 2.773438 58.910156 2.691406 59.078125 2.773438 59.324219 C 2.746094 60.230469 2.828125 61.109375 2.800781 62.179688 C 2.9375 62.757812 2.746094 63.308594 2.9375 63.964844 C 2.910156 65.066406 3.046875 66.058594 3.019531 67.210938 C 3.46875 67.257812 3.917969 67.253906 4.363281 67.191406 C 4.171875 66.835938 4.28125 66.4375 4.28125 66.035156 C 4.144531 65.707031 4.28125 65.210938 4.171875 64.855469 C 4.226562 64.054688 4.035156 63.398438 4.144531 62.628906 L 4.089844 62.628906 C 3.980469 61.421875 3.980469 59.910156 3.925781 58.617188 Z M 6.019531 52.480469 C 5.984375 51.605469 5.417969 50.84375 4.589844 50.558594 L 4.589844 52.125 L 4.726562 52.425781 L 4.753906 54.761719 L 4.726562 54.761719 C 4.726562 56.382812 4.839844 58.773438 4.726562 60.617188 C 5.324219 60.4375 5.789062 59.972656 5.980469 59.378906 C 6.0625 57.070312 6.035156 54.707031 6.007812 52.480469 M 1.671875 52.589844 C 1.863281 52.042969 1.785156 51.191406 1.726562 50.558594 C 1.03125 50.84375 0.523438 51.464844 0.382812 52.207031 C 0.410156 54.296875 0.300781 57.015625 0.464844 59.351562 C 0.734375 60.023438 1.285156 60.546875 1.96875 60.78125 C 2.050781 60.667969 1.914062 60.5625 1.996094 60.476562 C 1.859375 60.09375 1.941406 59.765625 1.941406 59.296875 C 1.476562 58.71875 1.777344 57.648438 1.667969 56.90625 L 1.695312 56.90625 C 1.640625 55.421875 1.667969 54.101562 1.667969 52.589844 M 3.78125 43.746094 L 2.578125 43.746094 L 2.511719 44.292969 C 2.59375 46.464844 2.539062 50.203125 2.621094 52.617188 C 3.023438 52.648438 3.425781 52.648438 3.828125 52.617188 L 3.800781 43.746094 Z M 5.976562 37.5625 C 5.839844 36.847656 5.507812 36.132812 4.722656 35.832031 C 4.53125 35.910156 4.699219 36.242188 4.585938 36.40625 C 4.722656 36.847656 4.335938 37.234375 4.667969 37.589844 C 4.640625 39.621094 4.722656 41.902344 4.699219 43.964844 C 4.503906 44.570312 4.585938 45.199219 4.585938 45.859375 C 4.613281 45.859375 4.667969 45.832031 4.667969 45.886719 C 4.832031 45.667969 5.054688 45.722656 5.191406 45.53125 L 5.21875 45.554688 C 5.574219 45.207031 5.835938 44.777344 5.984375 44.304688 L 5.984375 37.5625 M 1.867188 37.234375 C 1.8125 36.652344 2.03125 36.214844 1.921875 35.667969 C 1.261719 35.804688 0.660156 36.4375 0.421875 37.039062 C 0.339844 37.121094 0.445312 37.371094 0.3125 37.421875 L 0.339844 44.019531 C 0.382812 44.6875 0.71875 45.300781 1.261719 45.695312 C 1.425781 45.777344 1.589844 45.804688 1.761719 45.886719 C 1.734375 45.226562 1.867188 44.570312 1.652344 44.019531 L 1.625 39.238281 C 1.707031 38.550781 1.402344 37.78125 1.875 37.234375 M 4.484375 29.15625 C 4.097656 29.101562 3.6875 29.210938 3.300781 29.074219 C 3.191406 29.101562 3.328125 29.234375 3.191406 29.261719 C 3.300781 29.59375 3.027344 29.84375 3.164062 30.144531 C 3.082031 30.582031 3.109375 31.023438 3 31.597656 C 3.039062 31.828125 3.019531 32.066406 2.945312 32.285156 C 2.972656 33.878906 2.695312 35.171875 2.613281 36.652344 C 2.585938 36.738281 2.699219 36.847656 2.558594 36.90625 C 2.699219 37.207031 2.398438 37.507812 2.558594 37.808594 L 3.769531 37.921875 C 4.097656 35.53125 4.234375 32.726562 4.425781 30.339844 C 4.398438 29.925781 4.644531 29.542969 4.484375 29.15625 M 46.601562 66.46875 C 46.546875 66.058594 46.683594 65.589844 46.574219 65.039062 C 45.996094 65.292969 45.507812 65.714844 45.171875 66.246094 C 45.007812 66.574219 44.898438 66.851562 44.734375 67.128906 C 44.613281 67.59375 44.554688 68.074219 44.570312 68.558594 C 44.679688 68.832031 44.625 69.308594 44.898438 69.515625 C 44.984375 70.070312 45.449219 70.453125 45.804688 70.8125 C 45.996094 70.894531 46.078125 71.03125 46.21875 71.113281 C 46.578125 71.277344 46.953125 71.40625 47.339844 71.496094 C 47.480469 71.582031 47.699219 71.414062 47.84375 71.582031 C 49.242188 71.414062 50.203125 70.863281 50.863281 69.683594 C 51.113281 69.328125 51.113281 68.722656 51.273438 68.308594 C 51.363281 67 50.679688 65.765625 49.523438 65.148438 C 49.414062 65.617188 49.46875 66.136719 49.441406 66.652344 C 50.003906 67.222656 50.199219 68.066406 49.941406 68.824219 C 49.679688 69.585938 49.007812 70.128906 48.210938 70.222656 C 47.941406 70.335938 47.632812 70.335938 47.363281 70.222656 C 46.585938 70.003906 46.015625 69.347656 45.90625 68.550781 C 45.824219 67.667969 45.960938 66.980469 46.621094 66.460938 M 47.71875 58.464844 C 47.800781 59.015625 47.582031 59.453125 47.636719 59.894531 C 47.5 62.035156 47.472656 64.097656 47.417969 66.679688 C 47.351562 66.789062 47.339844 66.921875 47.390625 67.039062 C 47.464844 67.054688 47.542969 67.042969 47.609375 67.011719 C 47.945312 67.140625 48.320312 67.128906 48.652344 66.980469 C 48.707031 64.152344 48.871094 61.128906 48.925781 58.492188 Z M 51.09375 51.511719 C 50.808594 51.011719 50.371094 50.613281 49.84375 50.386719 C 49.921875 51.019531 49.648438 51.679688 49.949219 52.199219 L 49.976562 58.65625 C 49.867188 58.792969 49.921875 58.988281 49.726562 59.042969 C 49.675781 59.535156 49.648438 60.03125 49.648438 60.527344 L 49.8125 60.527344 C 50.441406 60.25 51.128906 59.757812 51.238281 58.90625 C 51.402344 56.789062 51.210938 54.453125 51.320312 52.367188 L 51.101562 51.511719 M 46.984375 50.394531 C 46.820312 50.394531 46.820312 50.585938 46.65625 50.558594 C 45.996094 50.863281 45.652344 51.660156 45.53125 52.347656 C 45.582031 54.269531 45.53125 56.4375 45.582031 58.667969 C 45.597656 59.480469 46.109375 60.199219 46.875 60.476562 C 46.929688 60.3125 46.820312 60.175781 46.929688 60.066406 C 46.820312 59.542969 47.179688 59.050781 46.847656 58.636719 L 46.832031 52.429688 C 46.886719 52.316406 46.832031 52.125 47 52.070312 L 47 50.394531 Z M 49.042969 43.605469 C 48.597656 43.589844 48.148438 43.597656 47.699219 43.632812 C 47.699219 46.824219 47.726562 49.511719 47.753906 52.480469 L 49.070312 52.457031 L 49.042969 45.886719 L 49.070312 45.886719 Z M 46.847656 35.722656 C 46.300781 35.832031 45.886719 36.40625 45.640625 36.847656 C 45.636719 37.074219 45.589844 37.296875 45.503906 37.507812 C 45.558594 39.347656 45.476562 42.234375 45.585938 44.023438 C 45.667969 44.8125 46.203125 45.480469 46.957031 45.726562 L 46.984375 44.1875 C 46.820312 44.109375 46.957031 43.96875 46.820312 43.886719 C 46.820312 41.550781 46.792969 39.902344 46.792969 37.511719 C 47.175781 36.988281 46.792969 36.386719 46.847656 35.726562 M 51.183594 37.265625 C 51.15625 36.304688 50.277344 35.808594 49.566406 35.53125 C 49.675781 36.285156 49.453125 36.851562 49.867188 37.402344 C 49.976562 39.296875 49.921875 41.605469 49.921875 43.859375 C 49.671875 44.378906 49.785156 45.179688 49.808594 45.726562 C 50.332031 45.535156 50.9375 45.066406 51.101562 44.492188 C 51.183594 44.378906 51.074219 44.296875 51.210938 44.21875 C 51.320312 41.769531 51.238281 39.820312 51.183594 37.265625 M 48.246094 30.148438 C 48.191406 29.765625 48.332031 29.183594 48.082031 28.910156 C 47.808594 29.128906 47.203125 28.855469 46.929688 29.128906 C 47.039062 30.945312 47.203125 32.429688 47.367188 34.269531 C 47.535156 34.40625 47.3125 34.769531 47.480469 34.929688 C 47.453125 35.890625 47.617188 36.851562 47.699219 37.785156 C 48.246094 37.84375 48.492188 37.648438 49.015625 37.675781 L 48.988281 37.152344 C 48.957031 36.800781 48.90625 36.449219 48.835938 36.101562 C 48.863281 34.867188 48.5625 33.546875 48.503906 32.285156 C 48.425781 31.53125 48.367188 30.964844 48.253906 30.140625 M 10.695312 56.246094 C 10.5625 56.402344 10.464844 56.589844 10.417969 56.792969 C 10.417969 57.152344 10.636719 57.34375 10.859375 57.5625 C 11.167969 57.714844 11.539062 57.660156 11.792969 57.425781 C 11.957031 57.203125 11.929688 56.988281 12.011719 56.671875 C 11.929688 56.566406 11.875 56.289062 11.683594 56.207031 C 11.367188 56.0625 11.003906 56.074219 10.695312 56.234375 M 18.128906 56.070312 C 17.847656 56.167969 17.640625 56.410156 17.582031 56.699219 C 17.558594 57.105469 17.824219 57.472656 18.214844 57.582031 C 18.542969 57.683594 18.898438 57.558594 19.089844 57.277344 C 19.285156 56.976562 19.144531 56.566406 19.035156 56.289062 C 18.769531 56.113281 18.449219 56.035156 18.128906 56.070312 M 25.101562 56.371094 C 24.96875 56.628906 24.960938 56.929688 25.074219 57.195312 C 25.226562 57.414062 25.46875 57.554688 25.734375 57.582031 C 25.953125 57.554688 26.335938 57.582031 26.421875 57.359375 C 26.582031 57.140625 26.652344 56.863281 26.613281 56.59375 C 26.636719 56.507812 26.449219 56.535156 26.554688 56.425781 C 26.382812 56.203125 26.121094 56.070312 25.839844 56.058594 C 25.5625 56.050781 25.292969 56.164062 25.101562 56.371094 M 32.679688 56.179688 C 32.484375 56.429688 32.539062 56.621094 32.457031 56.929688 C 32.519531 57.269531 32.789062 57.53125 33.128906 57.582031 C 33.46875 57.632812 33.804688 57.457031 33.960938 57.152344 L 33.960938 56.398438 C 33.652344 56.003906 33.09375 55.910156 32.671875 56.179688 M 39.859375 56.152344 C 39.664062 56.386719 39.589844 56.707031 39.667969 57.003906 C 39.75 57.222656 39.941406 57.332031 40.105469 57.503906 C 40.433594 57.503906 40.761719 57.617188 40.957031 57.339844 C 41.195312 57.0625 41.257812 56.675781 41.121094 56.335938 C 40.871094 55.980469 40.21875 55.953125 39.871094 56.171875 M 16.660156 50.558594 L 12.734375 50.558594 L 12.734375 55.007812 L 16.660156 54.984375 Z M 27.609375 50.503906 L 27.582031 54.929688 C 28.898438 54.957031 30.160156 54.984375 31.507812 54.902344 C 31.507812 53.222656 31.476562 52.070312 31.535156 50.503906 Z M 23.492188 50.503906 C 22.257812 50.585938 21.105469 50.449219 20.089844 50.613281 L 20.117188 54.957031 L 24.070312 54.957031 C 24.125 53.359375 24.070312 52.097656 24.070312 50.53125 Z M 38.476562 50.449219 L 38.476562 50.476562 L 34.9375 50.503906 C 34.882812 51.878906 34.910156 53.5 34.9375 54.929688 L 38.941406 54.929688 C 38.96875 53.25 38.917969 52.171875 38.941406 50.476562 Z M 17.730469 48.085938 C 17.59375 48.335938 17.480469 48.550781 17.59375 48.839844 C 17.59375 48.894531 17.730469 48.949219 17.648438 49 C 17.839844 49.304688 18.148438 49.359375 18.441406 49.414062 C 18.675781 49.394531 18.886719 49.273438 19.019531 49.085938 C 19.238281 48.832031 19.183594 48.332031 18.992188 48.042969 C 18.742188 47.769531 17.988281 47.710938 17.738281 48.097656 M 10.605469 48.070312 C 10.496094 48.320312 10.300781 48.589844 10.414062 48.839844 C 10.46875 49.140625 10.796875 49.339844 11.070312 49.414062 C 11.261719 49.554688 11.402344 49.304688 11.621094 49.304688 C 11.839844 49.195312 11.894531 48.867188 11.976562 48.699219 C 11.945312 48.484375 11.878906 48.277344 11.777344 48.085938 C 11.453125 47.761719 10.933594 47.75 10.597656 48.058594 M 25.167969 47.976562 C 25.0625 48.226562 24.867188 48.726562 25.089844 49.019531 C 25.195312 49.320312 25.609375 49.351562 25.882812 49.40625 C 26.101562 49.292969 26.460938 49.183594 26.515625 48.902344 C 26.613281 48.621094 26.585938 48.308594 26.433594 48.050781 C 26.183594 47.71875 25.429688 47.691406 25.179688 47.96875 M 32.648438 47.941406 C 32.484375 48.214844 32.371094 48.691406 32.566406 48.984375 C 32.695312 49.148438 32.867188 49.273438 33.066406 49.34375 C 33.394531 49.289062 33.78125 49.289062 33.886719 48.957031 C 34.027344 48.644531 33.996094 48.28125 33.808594 47.996094 C 33.613281 47.640625 32.957031 47.71875 32.65625 47.941406 M 39.917969 47.886719 C 39.746094 48.019531 39.648438 48.21875 39.640625 48.433594 C 39.667969 48.902344 39.777344 49.148438 40.21875 49.316406 C 40.546875 49.453125 40.851562 49.175781 41.070312 48.984375 C 41.171875 48.691406 41.1875 48.378906 41.125 48.078125 C 40.90625 47.71875 40.273438 47.664062 39.917969 47.886719 M 12.734375 42.148438 C 12.734375 43.578125 12.652344 45.367188 12.707031 46.710938 C 14.082031 46.683594 15.34375 46.796875 16.632812 46.683594 C 16.6875 45.117188 16.605469 43.925781 16.632812 42.148438 Z M 24.070312 42.121094 C 22.753906 42.148438 21.546875 42.148438 20.089844 42.175781 C 20.117188 43.824219 20.0625 45.117188 20.144531 46.710938 L 24.070312 46.683594 Z M 27.574219 42.09375 L 27.546875 46.683594 L 31.472656 46.65625 C 31.527344 45.058594 31.445312 43.574219 31.472656 42.09375 C 30.59375 42.148438 30.070312 42.035156 29.246094 42.148438 C 28.644531 42.09375 28.125 42.121094 27.574219 42.09375 M 38.933594 42.066406 C 37.5625 42.121094 36.355469 42.035156 34.902344 42.121094 C 34.929688 43.625 34.847656 45.226562 34.957031 46.65625 L 38.933594 46.628906 Z M 11.0625 39.539062 C 10.757812 39.648438 10.648438 39.648438 10.484375 39.871094 C 10.339844 40.222656 10.378906 40.625 10.59375 40.941406 C 10.8125 41.214844 11.097656 40.996094 11.332031 41.132812 C 11.472656 41.066406 11.601562 40.984375 11.71875 40.882812 C 11.882812 40.609375 12.046875 40.195312 11.828125 39.867188 C 11.628906 39.660156 11.351562 39.539062 11.0625 39.535156 M 18.113281 39.535156 C 17.789062 39.667969 17.558594 39.960938 17.511719 40.308594 C 17.648438 40.609375 17.675781 40.992188 18.03125 41.058594 C 18.363281 41.183594 18.734375 41.109375 18.992188 40.867188 C 19.128906 40.574219 19.15625 40.242188 19.074219 39.933594 C 18.882812 39.574219 18.441406 39.519531 18.113281 39.546875 M 25.136719 39.796875 C 25.007812 39.992188 24.941406 40.222656 24.949219 40.457031 C 25.027344 40.746094 25.242188 40.980469 25.523438 41.089844 C 25.90625 41.117188 26.183594 41.089844 26.375 40.839844 C 26.625 40.585938 26.566406 40.070312 26.429688 39.796875 C 26.265625 39.613281 26.03125 39.507812 25.785156 39.507812 C 25.539062 39.507812 25.304688 39.613281 25.136719 39.796875 M 33.425781 39.542969 C 33.148438 39.433594 32.832031 39.488281 32.605469 39.683594 C 32.433594 39.972656 32.394531 40.324219 32.496094 40.644531 C 32.597656 40.84375 32.78125 40.992188 32.996094 41.054688 C 33.246094 41.078125 33.496094 41.019531 33.710938 40.890625 C 34.011719 40.671875 33.960938 40.230469 33.902344 39.902344 C 33.871094 39.683594 33.570312 39.628906 33.433594 39.542969 M 40.324219 39.433594 C 40.070312 39.488281 39.71875 39.65625 39.664062 39.9375 C 39.5 40.320312 39.691406 40.59375 39.882812 40.867188 C 40.082031 41.007812 40.328125 41.070312 40.570312 41.035156 C 40.679688 40.980469 40.847656 40.980469 40.875 40.839844 L 40.925781 40.894531 C 40.902344 40.785156 41.007812 40.761719 41.035156 40.707031 C 41.136719 40.421875 41.15625 40.117188 41.089844 39.824219 C 40.910156 39.582031 40.625 39.441406 40.324219 39.4375 M 12.679688 33.933594 L 12.679688 38.304688 L 16.605469 38.304688 C 16.578125 36.738281 16.6875 35.636719 16.605469 33.933594 Z M 24.070312 33.910156 C 22.835938 33.910156 21.378906 33.878906 20.089844 33.933594 L 20.0625 38.304688 L 24.046875 38.304688 L 24.074219 33.910156 Z M 31.476562 33.878906 L 27.550781 33.878906 C 27.578125 35.609375 27.46875 36.847656 27.550781 38.277344 L 31.476562 38.277344 Z M 34.910156 33.878906 C 34.9375 35.609375 34.855469 36.886719 34.9375 38.277344 L 38.890625 38.222656 C 38.96875 36.984375 38.917969 35.464844 38.941406 33.851562 C 37.546875 33.910156 36.335938 33.796875 34.910156 33.878906 M 17.921875 31.515625 C 17.671875 31.597656 17.566406 31.898438 17.511719 32.203125 C 17.480469 32.558594 17.761719 32.644531 17.894531 32.863281 C 18.167969 32.917969 18.441406 33.054688 18.71875 32.890625 C 18.855469 32.726562 19.183594 32.53125 19.128906 32.203125 C 19.074219 31.984375 19.074219 31.628906 18.800781 31.570312 C 18.664062 31.320312 18.140625 31.378906 17.921875 31.515625 M 11.144531 31.40625 C 10.867188 31.390625 10.601562 31.527344 10.457031 31.761719 C 10.375 32.066406 10.292969 32.265625 10.429688 32.453125 C 10.402344 32.644531 10.703125 32.835938 10.8125 32.917969 C 11.101562 33.027344 11.425781 32.976562 11.664062 32.78125 C 11.800781 32.558594 12.023438 32.277344 11.855469 31.957031 C 11.777344 31.628906 11.480469 31.398438 11.144531 31.40625 M 25.523438 31.378906 C 25.285156 31.460938 25.09375 31.644531 25.003906 31.878906 C 24.921875 32.152344 24.972656 32.449219 25.136719 32.675781 C 25.472656 32.976562 25.964844 33.019531 26.347656 32.789062 C 26.550781 32.46875 26.589844 32.070312 26.457031 31.71875 C 26.375 31.746094 26.375 31.664062 26.375 31.605469 C 26.292969 31.550781 26.210938 31.386719 26.074219 31.46875 C 25.90625 31.304688 25.6875 31.46875 25.523438 31.386719 M 32.550781 31.636719 C 32.328125 31.910156 32.441406 32.296875 32.496094 32.542969 C 32.640625 32.78125 32.902344 32.925781 33.179688 32.929688 C 33.433594 32.902344 33.667969 32.785156 33.839844 32.597656 C 33.949219 32.269531 34.003906 31.773438 33.703125 31.554688 C 33.425781 31.28125 32.769531 31.28125 32.550781 31.636719 M 39.960938 31.386719 C 39.574219 31.605469 39.601562 32.046875 39.628906 32.390625 C 39.628906 32.578125 39.878906 32.527344 39.792969 32.71875 C 39.960938 32.664062 40.042969 32.910156 40.207031 32.882812 C 40.535156 32.992188 40.753906 32.773438 41 32.605469 C 41.164062 32.273438 41.144531 31.878906 40.945312 31.5625 C 40.667969 31.347656 40.296875 31.285156 39.960938 31.398438 M 49.585938 24.648438 C 50.792969 25.363281 51.453125 26.734375 51.425781 28.191406 C 51.363281 29.324219 50.828125 30.375 49.949219 31.089844 C 49.777344 31.234375 49.59375 31.363281 49.398438 31.472656 C 49.207031 31.253906 49.398438 30.96875 49.234375 30.785156 C 49.289062 30.621094 49.125 30.507812 49.179688 30.34375 C 49.234375 30.015625 48.796875 29.339844 49.234375 29.089844 C 49.433594 28.769531 49.519531 28.390625 49.484375 28.015625 L 49.539062 28.015625 C 49.511719 27.550781 49.320312 26.835938 48.882812 26.449219 C 48.796875 26.503906 48.660156 26.316406 48.578125 26.257812 C 48.050781 25.996094 47.441406 25.945312 46.878906 26.121094 C 46.238281 26.355469 45.769531 26.90625 45.644531 27.578125 C 45.492188 28.253906 45.699219 28.960938 46.191406 29.445312 C 46.136719 30.269531 46.300781 30.949219 46.246094 31.703125 C 45.617188 31.730469 45.285156 30.738281 44.710938 31.261719 C 44.132812 31.894531 43.335938 32.265625 42.597656 32.9375 C 42.484375 33.105469 42.265625 33.078125 42.1875 33.292969 L 42.1875 40.851562 L 42.214844 49.625 C 42.128906 53.417969 42.265625 57.316406 42.1875 61.355469 C 42.347656 61.824219 42.457031 62.347656 42.761719 62.703125 C 42.839844 62.976562 43.117188 63.144531 43.171875 63.417969 C 41.882812 64.378906 41.335938 65.78125 40.949219 67.265625 C 40.753906 67.515625 40.785156 67.953125 40.699219 68.253906 C 40.53125 68.363281 40.699219 68.695312 40.53125 68.695312 C 40.476562 68.089844 40.257812 67.402344 40.175781 66.878906 C 39.738281 65.644531 39.132812 64.371094 38.007812 63.476562 L 38.035156 63.28125 C 38.132812 63.1875 38.226562 63.085938 38.308594 62.976562 L 38.308594 62.894531 C 38.53125 62.816406 38.503906 62.566406 38.667969 62.429688 C 39.132812 61.277344 38.804688 60.09375 38.917969 58.746094 C 37.414062 58.695312 36.164062 58.746094 34.910156 58.746094 C 34.882812 60.339844 34.554688 62.207031 35.816406 63.390625 C 35.707031 63.640625 35.515625 63.640625 35.351562 63.859375 C 34.390625 64.960938 33.734375 66.296875 33.457031 67.730469 C 33.414062 67.925781 33.359375 68.121094 33.292969 68.308594 C 33.375 68.5 33.210938 68.558594 33.238281 68.722656 C 33.074219 68.035156 32.796875 66.660156 32.386719 65.753906 C 32.023438 64.859375 31.425781 64.082031 30.65625 63.496094 C 30.710938 63.113281 31.15625 62.839844 31.207031 62.507812 C 31.707031 61.464844 31.507812 60.144531 31.5625 58.800781 C 30.328125 58.714844 28.957031 58.773438 27.503906 58.800781 C 27.503906 59.652344 27.503906 60.722656 27.472656 61.558594 C 27.53125 61.628906 27.558594 61.71875 27.558594 61.808594 C 27.703125 62.40625 27.984375 62.960938 28.382812 63.425781 C 27.929688 63.871094 27.527344 64.359375 27.175781 64.882812 C 27.175781 65.023438 26.980469 65.023438 27.035156 65.214844 C 26.84375 65.351562 26.816406 65.597656 26.652344 65.820312 C 26.460938 66.476562 26.074219 67.136719 26.046875 67.878906 C 25.828125 68.128906 25.9375 68.539062 25.855469 68.871094 L 25.800781 68.871094 C 25.691406 68.082031 25.5 67.308594 25.226562 66.5625 C 24.921875 65.734375 24.511719 64.832031 23.882812 64.222656 L 23.90625 64.199219 C 23.691406 63.933594 23.4375 63.699219 23.15625 63.511719 C 23.292969 63.152344 23.625 62.90625 23.8125 62.507812 C 23.953125 62.101562 24.03125 61.675781 24.046875 61.25 C 24.183594 60.945312 24.074219 60.535156 24.15625 60.148438 C 24.074219 59.707031 24.183594 59.214844 24.128906 58.746094 C 22.589844 58.746094 21.550781 58.691406 20.066406 58.800781 C 20.09375 60.453125 19.765625 62.402344 21 63.449219 C 19.792969 64.378906 19.214844 65.644531 18.746094 66.957031 C 18.773438 67.3125 18.554688 67.695312 18.496094 67.960938 C 18.523438 68.179688 18.359375 68.429688 18.441406 68.675781 L 18.359375 68.761719 C 18.054688 66.699219 17.359375 64.882812 15.777344 63.496094 C 15.613281 63.273438 16 63.246094 16.027344 63.027344 C 16.90625 61.984375 16.605469 60.269531 16.6875 58.796875 C 15.34375 58.769531 14.082031 58.796875 12.707031 58.796875 C 12.707031 60.300781 12.351562 62.203125 13.53125 63.25 L 13.585938 63.523438 C 12.953125 63.90625 12.570312 64.625 12.160156 65.253906 C 11.589844 66.371094 11.226562 67.582031 11.089844 68.828125 C 10.839844 67.753906 10.703125 66.878906 10.238281 65.914062 C 9.769531 64.953125 9.332031 64.097656 8.484375 63.523438 C 8.429688 63.304688 8.757812 63.167969 8.789062 62.917969 C 9.171875 62.453125 9.253906 61.957031 9.421875 61.378906 C 9.394531 53.824219 9.308594 45.332031 9.339844 38.546875 L 9.367188 38.546875 L 9.339844 33.351562 C 8.625 32.832031 8.019531 32.308594 7.308594 31.730469 L 7.195312 31.730469 C 7.085938 31.539062 6.695312 31.347656 6.484375 31.125 C 6.042969 31.402344 5.6875 31.703125 5.140625 31.8125 C 5.160156 31.214844 5.214844 30.621094 5.304688 30.027344 C 5.355469 29.835938 5.167969 29.480469 5.496094 29.394531 C 5.6875 29.039062 5.996094 28.597656 5.878906 28.078125 C 5.960938 27.390625 5.578125 26.839844 5 26.425781 C 4.425781 26.015625 3.382812 26.070312 2.859375 26.425781 C 2.148438 26.867188 1.871094 27.609375 1.953125 28.515625 C 2.035156 28.867188 2.207031 29.1875 2.453125 29.449219 C 2.398438 30.054688 2.152344 30.992188 2.097656 31.621094 C 1.222656 31.097656 0.558594 30.292969 0.203125 29.339844 C -0.261719 28.085938 0.203125 26.453125 1.027344 25.46875 C 1.246094 25.355469 1.300781 25.082031 1.574219 25.027344 C 2.476562 24.332031 3.636719 24.074219 4.75 24.320312 C 5.089844 24.359375 5.414062 24.492188 5.683594 24.703125 C 6.476562 24.921875 7.109375 25.773438 7.464844 26.515625 C 7.824219 27.175781 7.851562 28.136719 7.714844 28.878906 C 8.347656 29.429688 9.144531 29.703125 9.773438 30.171875 L 18.941406 30.144531 C 20.75 30.226562 22.753906 30.144531 24.480469 30.144531 L 33.867188 30.117188 L 41.691406 30.085938 C 42.320312 29.585938 43.144531 29.261719 43.722656 28.769531 C 43.558594 27.039062 44.132812 25.417969 45.726562 24.535156 C 46.273438 24.261719 46.867188 24.089844 47.480469 24.035156 C 48.273438 24.117188 48.960938 24.230469 49.59375 24.640625 "/>
</g>
<g clip-path="url(#clip2)" clip-rule="nonzero">
<path style=" stroke:none;fill-rule:nonzero;fill:rgb(93.725491%,66.666669%,21.176471%);fill-opacity:1;" d="M 0.0078125 83.089844 L 12.273438 83.089844 L 12.273438 85.847656 L 3.105469 85.847656 L 3.105469 92.453125 L 11.964844 92.453125 L 11.964844 95.230469 L 3.105469 95.230469 L 3.105469 101.960938 L 12.566406 101.960938 L 12.566406 104.722656 L 0.0078125 104.722656 Z M 0.0078125 83.089844 "/>
</g>
<path style=" stroke:none;fill-rule:nonzero;fill:rgb(93.725491%,66.666669%,21.176471%);fill-opacity:1;" d="M 28.90625 94.390625 L 28.90625 104.75 L 26.070312 104.75 L 26.070312 96.8125 C 26.070312 95.230469 25.859375 94.125 25.433594 93.503906 C 25.011719 92.878906 24.273438 92.566406 23.21875 92.5625 C 22.65625 92.558594 22.097656 92.695312 21.601562 92.964844 C 20.96875 93.351562 20.402344 93.832031 19.921875 94.390625 L 19.921875 104.75 L 17.101562 104.75 L 17.101562 90.484375 L 19.921875 90.484375 L 19.921875 92.363281 C 21.355469 90.925781 22.761719 90.207031 24.132812 90.207031 C 25.941406 90.207031 27.339844 91.0625 28.332031 92.78125 C 29.832031 91.042969 31.40625 90.171875 33.054688 90.175781 C 34.363281 90.140625 35.617188 90.699219 36.46875 91.695312 C 37.367188 92.707031 37.820312 94.253906 37.820312 96.332031 L 37.820312 104.75 L 34.988281 104.75 L 34.988281 96.300781 C 34.988281 95.113281 34.746094 94.203125 34.261719 93.570312 C 33.761719 92.933594 32.980469 92.582031 32.171875 92.625 C 31.003906 92.625 29.917969 93.214844 28.917969 94.390625 Z M 28.90625 94.390625 "/>
<path style=" stroke:none;fill-rule:nonzero;fill:rgb(93.725491%,66.666669%,21.176471%);fill-opacity:1;" d="M 49.605469 101.929688 L 49.605469 97.695312 L 47.714844 98.425781 C 46.753906 98.808594 46.074219 99.195312 45.679688 99.578125 C 44.894531 100.378906 44.882812 101.65625 45.648438 102.472656 C 46.039062 102.847656 46.566406 103.050781 47.109375 103.03125 C 48.058594 103.011719 48.960938 102.617188 49.613281 101.929688 Z M 52.375 96.175781 L 52.375 102.238281 C 52.375 102.726562 52.542969 102.96875 52.878906 102.96875 C 53.21875 102.96875 53.75 102.71875 54.472656 102.21875 L 54.472656 103.941406 C 53.988281 104.269531 53.472656 104.554688 52.933594 104.785156 C 52.542969 104.933594 52.132812 105.011719 51.714844 105.011719 C 50.507812 105.011719 49.796875 104.535156 49.578125 103.582031 C 48.5 104.46875 47.152344 104.960938 45.753906 104.976562 C 44.828125 105.003906 43.929688 104.648438 43.273438 103.996094 C 42.613281 103.34375 42.25 102.449219 42.273438 101.519531 C 42.273438 100.621094 42.617188 99.757812 43.238281 99.109375 C 44.003906 98.328125 44.949219 97.75 45.996094 97.425781 L 49.601562 96.183594 L 49.601562 95.433594 C 49.601562 93.71875 48.746094 92.859375 47.03125 92.859375 C 45.492188 92.859375 43.996094 93.65625 42.542969 95.246094 L 42.542969 92.144531 C 43.636719 90.851562 45.210938 90.207031 47.265625 90.207031 C 48.804688 90.207031 50.035156 90.609375 50.964844 91.417969 C 51.644531 92.023438 52.105469 92.835938 52.273438 93.734375 C 52.359375 94.542969 52.394531 95.359375 52.375 96.175781 Z M 52.375 96.175781 "/>
<path style=" stroke:none;fill-rule:nonzero;fill:rgb(93.725491%,66.666669%,21.176471%);fill-opacity:1;" d="M 61.527344 90.484375 L 61.527344 92.300781 C 62.785156 90.902344 64.214844 90.203125 65.816406 90.207031 C 66.691406 90.203125 67.546875 90.441406 68.292969 90.894531 C 69.050781 91.339844 69.660156 92 70.046875 92.789062 C 70.445312 93.589844 70.644531 94.859375 70.644531 96.597656 L 70.644531 104.75 L 67.8125 104.75 L 67.8125 96.625 C 67.8125 95.167969 67.59375 94.125 67.148438 93.503906 C 66.703125 92.878906 65.960938 92.566406 64.917969 92.5625 C 63.582031 92.5625 62.453125 93.230469 61.527344 94.566406 L 61.527344 104.757812 L 58.644531 104.757812 L 58.644531 90.484375 Z M 61.527344 90.484375 "/>
<path style=" stroke:none;fill-rule:nonzero;fill:rgb(93.725491%,66.666669%,21.176471%);fill-opacity:1;" d="M 85.078125 104.75 L 85.078125 102.9375 C 84.5 103.574219 83.800781 104.089844 83.027344 104.457031 C 82.308594 104.804688 81.523438 104.992188 80.726562 105 C 79.851562 105.007812 78.992188 104.773438 78.238281 104.324219 C 77.5 103.894531 76.902344 103.261719 76.519531 102.496094 C 76.132812 101.726562 75.941406 100.445312 75.941406 98.65625 L 75.941406 90.484375 L 78.757812 90.484375 L 78.757812 98.625 C 78.757812 100.132812 78.972656 101.175781 79.398438 101.765625 C 79.828125 102.355469 80.578125 102.652344 81.652344 102.660156 C 82.988281 102.660156 84.128906 102 85.078125 100.6875 L 85.078125 90.484375 L 87.898438 90.484375 L 87.898438 104.75 Z M 85.078125 104.75 "/>
<path style=" stroke:none;fill-rule:nonzero;fill:rgb(93.725491%,66.666669%,21.176471%);fill-opacity:1;" d="M 95.789062 96.175781 L 102.960938 96.175781 C 102.886719 95.046875 102.554688 94.179688 101.957031 93.570312 C 101.316406 92.941406 100.441406 92.609375 99.542969 92.65625 C 98.625 92.621094 97.730469 92.949219 97.054688 93.570312 C 96.414062 94.183594 95.996094 95.050781 95.804688 96.175781 Z M 105.746094 97.867188 L 95.730469 97.867188 C 95.800781 99.230469 96.257812 100.316406 97.101562 101.125 C 97.945312 101.933594 99.027344 102.339844 100.355469 102.335938 C 102.214844 102.335938 104.019531 101.722656 105.5 100.597656 L 105.5 103.355469 C 104.707031 103.898438 103.839844 104.316406 102.921875 104.597656 C 101.945312 104.859375 100.933594 104.984375 99.917969 104.96875 C 98.347656 104.96875 97.078125 104.640625 96.105469 103.992188 C 95.121094 103.324219 94.320312 102.421875 93.777344 101.363281 C 93.175781 100.179688 92.875 98.867188 92.90625 97.542969 C 92.90625 95.367188 93.519531 93.601562 94.75 92.242188 C 95.976562 90.886719 97.574219 90.207031 99.535156 90.207031 C 101.425781 90.207031 102.933594 90.867188 104.058594 92.191406 C 105.183594 93.515625 105.746094 95.289062 105.746094 97.507812 Z M 105.746094 97.867188 "/>
<path style=" stroke:none;fill-rule:nonzero;fill:rgb(93.725491%,66.666669%,21.176471%);fill-opacity:1;" d="M 110.605469 83.089844 L 113.425781 83.089844 L 113.425781 104.75 L 110.605469 104.75 Z M 110.605469 83.089844 "/>
<path style=" stroke:none;fill-rule:nonzero;fill:rgb(93.725491%,66.666669%,21.176471%);fill-opacity:1;" d="M 135.546875 95.671875 L 133.191406 94.242188 C 131.714844 93.339844 130.664062 92.449219 130.039062 91.578125 C 129.414062 90.699219 129.085938 89.644531 129.101562 88.570312 C 129.101562 86.863281 129.691406 85.480469 130.875 84.414062 C 132.058594 83.347656 133.589844 82.816406 135.476562 82.808594 C 137.246094 82.800781 138.980469 83.328125 140.445312 84.332031 L 140.445312 87.855469 C 138.882812 86.351562 137.207031 85.597656 135.414062 85.597656 C 134.523438 85.558594 133.648438 85.804688 132.910156 86.300781 C 132.296875 86.691406 131.929688 87.371094 131.933594 88.101562 C 131.941406 88.773438 132.199219 89.421875 132.648438 89.921875 C 133.324219 90.640625 134.109375 91.242188 134.972656 91.710938 L 137.339844 93.109375 C 139.980469 94.691406 141.300781 96.695312 141.300781 99.128906 C 141.300781 100.867188 140.714844 102.277344 139.546875 103.359375 C 138.378906 104.445312 136.867188 104.988281 135.015625 104.988281 C 132.90625 105 130.851562 104.304688 129.175781 103.015625 L 129.175781 99.089844 C 130.847656 101.210938 132.78125 102.269531 134.988281 102.269531 C 135.867188 102.300781 136.726562 102.011719 137.410156 101.460938 C 138.03125 100.96875 138.386719 100.21875 138.378906 99.425781 C 138.378906 98.109375 137.425781 96.855469 135.527344 95.667969 Z M 135.546875 95.671875 "/>
<path style=" stroke:none;fill-rule:nonzero;fill:rgb(93.725491%,66.666669%,21.176471%);fill-opacity:1;" d="M 156.28125 101.417969 L 156.28125 104.207031 C 154.957031 104.71875 153.550781 104.988281 152.132812 105 C 149.902344 105 148.125 104.339844 146.796875 103.015625 C 145.472656 101.691406 144.804688 99.917969 144.792969 97.695312 C 144.792969 95.453125 145.441406 93.644531 146.730469 92.269531 C 148.019531 90.894531 149.71875 90.207031 151.824219 90.207031 C 152.488281 90.199219 153.152344 90.269531 153.800781 90.417969 C 154.542969 90.613281 155.265625 90.875 155.960938 91.199219 L 155.960938 94.207031 C 154.535156 93.296875 153.214844 92.84375 151.996094 92.84375 C 150.808594 92.808594 149.660156 93.296875 148.867188 94.183594 C 148.054688 95.078125 147.644531 96.214844 147.644531 97.601562 C 147.644531 99.0625 148.085938 100.21875 148.96875 101.078125 C 149.851562 101.933594 151.042969 102.363281 152.539062 102.363281 C 153.621094 102.363281 154.863281 102.046875 156.269531 101.417969 Z M 156.28125 101.417969 "/>
<path style=" stroke:none;fill-rule:nonzero;fill:rgb(93.725491%,66.666669%,21.176471%);fill-opacity:1;" d="M 160.695312 83.089844 L 163.519531 83.089844 L 163.519531 92.363281 C 164.6875 90.929688 166.148438 90.210938 167.902344 90.207031 C 168.804688 90.195312 169.691406 90.441406 170.457031 90.921875 C 171.207031 91.390625 171.792969 92.078125 172.136719 92.890625 C 172.503906 93.726562 172.6875 94.972656 172.6875 96.628906 L 172.6875 104.753906 L 169.863281 104.753906 L 169.863281 95.929688 C 169.863281 94.886719 169.609375 94.046875 169.097656 93.410156 C 168.617188 92.789062 167.863281 92.433594 167.078125 92.457031 C 166.460938 92.457031 165.855469 92.621094 165.324219 92.9375 C 164.644531 93.375 164.03125 93.914062 163.511719 94.535156 L 163.511719 104.753906 L 160.695312 104.753906 Z M 160.695312 83.089844 "/>
<path style=" stroke:none;fill-rule:nonzero;fill:rgb(93.725491%,66.666669%,21.176471%);fill-opacity:1;" d="M 184.554688 92.996094 C 183.304688 92.953125 182.097656 93.4375 181.222656 94.328125 C 180.347656 95.238281 179.878906 96.464844 179.921875 97.726562 C 179.878906 98.980469 180.363281 100.191406 181.253906 101.070312 C 182.140625 101.929688 183.28125 102.363281 184.679688 102.363281 C 185.9375 102.40625 187.15625 101.933594 188.058594 101.054688 C 189.84375 99.160156 189.820312 96.195312 188.007812 94.328125 C 187.078125 93.441406 185.835938 92.960938 184.554688 92.996094 Z M 184.707031 90.453125 C 186.878906 90.453125 188.679688 91.152344 190.113281 92.554688 C 191.546875 93.957031 192.265625 95.714844 192.269531 97.835938 C 192.316406 99.78125 191.519531 101.648438 190.082031 102.960938 C 188.628906 104.320312 186.796875 105 184.585938 105 C 182.449219 105 180.660156 104.308594 179.226562 102.929688 C 177.84375 101.554688 177.070312 99.679688 177.074219 97.730469 C 177.078125 95.777344 177.863281 93.910156 179.25 92.539062 C 180.699219 91.152344 182.519531 90.457031 184.707031 90.453125 Z M 184.707031 90.453125 "/>
<path style=" stroke:none;fill-rule:nonzero;fill:rgb(93.725491%,66.666669%,21.176471%);fill-opacity:1;" d="M 203 92.996094 C 201.753906 92.953125 200.542969 93.4375 199.671875 94.328125 C 198.792969 95.238281 198.324219 96.464844 198.367188 97.726562 C 198.324219 98.980469 198.804688 100.191406 199.699219 101.070312 C 200.589844 101.929688 201.730469 102.363281 203.125 102.363281 C 204.386719 102.410156 205.617188 101.9375 206.523438 101.054688 C 208.3125 99.160156 208.285156 96.191406 206.46875 94.328125 C 205.539062 93.4375 204.289062 92.957031 203 92.996094 Z M 203.15625 90.453125 C 205.324219 90.453125 207.128906 91.152344 208.558594 92.554688 C 209.992188 93.957031 210.710938 95.714844 210.710938 97.835938 C 210.761719 99.777344 209.964844 101.648438 208.527344 102.960938 C 207.070312 104.320312 205.234375 105 203.019531 105 C 200.882812 105 199.097656 104.308594 197.660156 102.929688 C 196.28125 101.554688 195.503906 99.679688 195.507812 97.730469 C 195.511719 95.777344 196.296875 93.910156 197.683594 92.539062 C 199.132812 91.152344 200.953125 90.457031 203.144531 90.453125 Z M 203.15625 90.453125 "/>
<path style=" stroke:none;fill-rule:nonzero;fill:rgb(93.725491%,66.666669%,21.176471%);fill-opacity:1;" d="M 215.171875 83.089844 L 217.992188 83.089844 L 217.992188 104.75 L 215.171875 104.75 Z M 215.171875 83.089844 "/>
</g>
</svg>
